# xmcd CD database file
#
# Track frame offsets:
#	150
#	22317
#	26285
#
# Disc length: 619 seconds
#
# Revision: 1
# Processed by: cddbd v1.5.2PL0 Copyright (c) Steve Scherf et al.
# Submitted via: CDex 1.70beta3
#
DISCID=1c026903
DTITLE=アルファ and DJ TASAKA - エクスタシー温泉
DYEAR=2002
DGENRE=Hip-Hop
TTITLE0=エクスタシー温泉 - アルファ and DJ TASAKA
TTITLE1=Untitled
TTITLE2=モアモア - アルファ
EXTD=YEAR: 2002
EXTT0=
EXTT1=
EXTT2=
PLAYORDER=
